%TF.GenerationSoftware,KiCad,Pcbnew,(5.1.9)-1*%
%TF.CreationDate,2021-10-09T19:01:39-07:00*%
%TF.ProjectId,HVAC Moisture Recovery system,48564143-204d-46f6-9973-747572652052,rev?*%
%TF.SameCoordinates,Original*%
%TF.FileFunction,Copper,L1,Top*%
%TF.FilePolarity,Positive*%
%FSLAX46Y46*%
G04 Gerber Fmt 4.6, Leading zero omitted, Abs format (unit mm)*
G04 Created by KiCad (PCBNEW (5.1.9)-1) date 2021-10-09 19:01:39*
%MOMM*%
%LPD*%
G01*
G04 APERTURE LIST*
%TA.AperFunction,ComponentPad*%
%ADD10C,1.150000*%
%TD*%
%TA.AperFunction,ComponentPad*%
%ADD11R,1.150000X1.150000*%
%TD*%
%TA.AperFunction,ComponentPad*%
%ADD12C,1.920000*%
%TD*%
%TA.AperFunction,ComponentPad*%
%ADD13R,1.920000X1.920000*%
%TD*%
%TA.AperFunction,ComponentPad*%
%ADD14C,2.600000*%
%TD*%
%TA.AperFunction,ComponentPad*%
%ADD15R,2.600000X2.600000*%
%TD*%
%TA.AperFunction,ComponentPad*%
%ADD16O,1.700000X1.700000*%
%TD*%
%TA.AperFunction,ComponentPad*%
%ADD17R,1.700000X1.700000*%
%TD*%
%TA.AperFunction,ComponentPad*%
%ADD18O,1.400000X1.400000*%
%TD*%
%TA.AperFunction,ComponentPad*%
%ADD19C,1.400000*%
%TD*%
%TA.AperFunction,ComponentPad*%
%ADD20R,1.050000X1.500000*%
%TD*%
%TA.AperFunction,ComponentPad*%
%ADD21O,1.050000X1.500000*%
%TD*%
%TA.AperFunction,ComponentPad*%
%ADD22R,1.500000X1.050000*%
%TD*%
%TA.AperFunction,ComponentPad*%
%ADD23O,1.500000X1.050000*%
%TD*%
%TA.AperFunction,ComponentPad*%
%ADD24O,2.600000X2.600000*%
%TD*%
%TA.AperFunction,ViaPad*%
%ADD25C,0.800000*%
%TD*%
%TA.AperFunction,Conductor*%
%ADD26C,1.270000*%
%TD*%
%TA.AperFunction,Conductor*%
%ADD27C,0.250000*%
%TD*%
%TA.AperFunction,Conductor*%
%ADD28C,0.254000*%
%TD*%
%TA.AperFunction,Conductor*%
%ADD29C,0.100000*%
%TD*%
G04 APERTURE END LIST*
D10*
%TO.P,Z3,2*%
%TO.N,Net-(Q6-Pad1)*%
X146590000Y-133350000D03*
D11*
%TO.P,Z3,1*%
%TO.N,+VDC*%
X135890000Y-133350000D03*
%TD*%
D10*
%TO.P,Z2,2*%
%TO.N,Net-(Q4-Pad1)*%
X127540000Y-133350000D03*
D11*
%TO.P,Z2,1*%
%TO.N,+VDC*%
X116840000Y-133350000D03*
%TD*%
D10*
%TO.P,Z1,2*%
%TO.N,Net-(Q2-Pad1)*%
X108490000Y-133350000D03*
D11*
%TO.P,Z1,1*%
%TO.N,+VDC*%
X97790000Y-133350000D03*
%TD*%
D12*
%TO.P,Q6,3*%
%TO.N,+VDC*%
X139700000Y-128270000D03*
%TO.P,Q6,2*%
%TO.N,Net-(D3-Pad1)*%
X142240000Y-128270000D03*
D13*
%TO.P,Q6,1*%
%TO.N,Net-(Q6-Pad1)*%
X144780000Y-128270000D03*
%TD*%
D12*
%TO.P,Q4,3*%
%TO.N,+VDC*%
X120650000Y-128270000D03*
%TO.P,Q4,2*%
%TO.N,Net-(D2-Pad1)*%
X123190000Y-128270000D03*
D13*
%TO.P,Q4,1*%
%TO.N,Net-(Q4-Pad1)*%
X125730000Y-128270000D03*
%TD*%
D12*
%TO.P,Q2,3*%
%TO.N,+VDC*%
X101600000Y-128270000D03*
%TO.P,Q2,2*%
%TO.N,Net-(D1-Pad1)*%
X104140000Y-128270000D03*
D13*
%TO.P,Q2,1*%
%TO.N,Net-(Q2-Pad1)*%
X106680000Y-128270000D03*
%TD*%
D14*
%TO.P,J2,2*%
%TO.N,GND*%
X90170000Y-123190000D03*
D15*
%TO.P,J2,1*%
%TO.N,+VDC*%
X90170000Y-118110000D03*
%TD*%
D16*
%TO.P,J4,9*%
%TO.N,GND*%
X157480000Y-142240000D03*
%TO.P,J4,8*%
%TO.N,VBUS*%
X157480000Y-139700000D03*
%TO.P,J4,7*%
%TO.N,/Tank Level Sensors/TTL4-4*%
X157480000Y-137160000D03*
%TO.P,J4,6*%
%TO.N,/Tank Level Sensors/TTL3-4*%
X157480000Y-134620000D03*
%TO.P,J4,5*%
%TO.N,/Tank Level Sensors/TTL1-2*%
X157480000Y-132080000D03*
%TO.P,J4,4*%
%TO.N,/Tank Level Sensors/TTL1-4*%
X157480000Y-129540000D03*
%TO.P,J4,3*%
%TO.N,Net-(J4-Pad3)*%
X157480000Y-127000000D03*
%TO.P,J4,2*%
%TO.N,Net-(J4-Pad2)*%
X157480000Y-124460000D03*
D17*
%TO.P,J4,1*%
%TO.N,Net-(J4-Pad1)*%
X157480000Y-121920000D03*
%TD*%
D14*
%TO.P,J1,4*%
%TO.N,/Tank Level Sensors/VIN4-4*%
X151130000Y-144780000D03*
%TO.P,J1,3*%
%TO.N,/Tank Level Sensors/VIN3-4*%
X146050000Y-144780000D03*
%TO.P,J1,2*%
%TO.N,/Tank Level Sensors/VIN1-2*%
X140970000Y-144780000D03*
D15*
%TO.P,J1,1*%
%TO.N,/Tank Level Sensors/VIN1-4*%
X135890000Y-144780000D03*
%TD*%
D18*
%TO.P,R17,2*%
%TO.N,GND*%
X129000000Y-148610000D03*
D19*
%TO.P,R17,1*%
%TO.N,/Tank Level Sensors/TTL4-4*%
X126460000Y-148610000D03*
%TD*%
D18*
%TO.P,R16,2*%
%TO.N,GND*%
X129000000Y-145460000D03*
D19*
%TO.P,R16,1*%
%TO.N,/Tank Level Sensors/VIN4-4*%
X126460000Y-145460000D03*
%TD*%
D18*
%TO.P,R15,2*%
%TO.N,GND*%
X123410000Y-148610000D03*
D19*
%TO.P,R15,1*%
%TO.N,/Tank Level Sensors/TTL3-4*%
X120870000Y-148610000D03*
%TD*%
D18*
%TO.P,R14,2*%
%TO.N,GND*%
X129000000Y-142310000D03*
D19*
%TO.P,R14,1*%
%TO.N,/Tank Level Sensors/VIN3-4*%
X126460000Y-142310000D03*
%TD*%
D18*
%TO.P,R13,2*%
%TO.N,GND*%
X123410000Y-145460000D03*
D19*
%TO.P,R13,1*%
%TO.N,/Tank Level Sensors/TTL1-2*%
X120870000Y-145460000D03*
%TD*%
D18*
%TO.P,R12,2*%
%TO.N,GND*%
X129000000Y-139160000D03*
D19*
%TO.P,R12,1*%
%TO.N,/Tank Level Sensors/VIN1-2*%
X126460000Y-139160000D03*
%TD*%
D18*
%TO.P,R11,2*%
%TO.N,GND*%
X123410000Y-142310000D03*
D19*
%TO.P,R11,1*%
%TO.N,/Tank Level Sensors/TTL1-4*%
X120870000Y-142310000D03*
%TD*%
D18*
%TO.P,R10,2*%
%TO.N,GND*%
X123410000Y-139160000D03*
D19*
%TO.P,R10,1*%
%TO.N,/Tank Level Sensors/VIN1-4*%
X120870000Y-139160000D03*
%TD*%
D18*
%TO.P,R9,2*%
%TO.N,Net-(Q5-Pad3)*%
X88900000Y-148590000D03*
D19*
%TO.P,R9,1*%
%TO.N,Net-(Q6-Pad1)*%
X86360000Y-148590000D03*
%TD*%
D18*
%TO.P,R8,2*%
%TO.N,Net-(Q6-Pad1)*%
X88900000Y-144780000D03*
D19*
%TO.P,R8,1*%
%TO.N,+VDC*%
X86360000Y-144780000D03*
%TD*%
D18*
%TO.P,R7,2*%
%TO.N,GND*%
X88900000Y-140970000D03*
D19*
%TO.P,R7,1*%
%TO.N,Net-(J4-Pad1)*%
X86360000Y-140970000D03*
%TD*%
D18*
%TO.P,R6,2*%
%TO.N,Net-(Q3-Pad3)*%
X101600000Y-139700000D03*
D19*
%TO.P,R6,1*%
%TO.N,Net-(Q4-Pad1)*%
X99060000Y-139700000D03*
%TD*%
D18*
%TO.P,R5,2*%
%TO.N,Net-(Q4-Pad1)*%
X93980000Y-139700000D03*
D19*
%TO.P,R5,1*%
%TO.N,+VDC*%
X91440000Y-139700000D03*
%TD*%
D18*
%TO.P,R4,2*%
%TO.N,GND*%
X93980000Y-135890000D03*
D19*
%TO.P,R4,1*%
%TO.N,Net-(J4-Pad2)*%
X91440000Y-135890000D03*
%TD*%
D18*
%TO.P,R3,2*%
%TO.N,Net-(Q1-Pad3)*%
X88900000Y-137160000D03*
D19*
%TO.P,R3,1*%
%TO.N,Net-(Q2-Pad1)*%
X86360000Y-137160000D03*
%TD*%
D18*
%TO.P,R2,2*%
%TO.N,Net-(Q2-Pad1)*%
X88900000Y-133350000D03*
D19*
%TO.P,R2,1*%
%TO.N,+VDC*%
X86360000Y-133350000D03*
%TD*%
D18*
%TO.P,R1,2*%
%TO.N,GND*%
X88900000Y-129540000D03*
D19*
%TO.P,R1,1*%
%TO.N,Net-(J4-Pad3)*%
X86360000Y-129540000D03*
%TD*%
D20*
%TO.P,Q10,1*%
%TO.N,/Tank Level Sensors/TTL4-4*%
X114770000Y-140840000D03*
D21*
%TO.P,Q10,3*%
%TO.N,VBUS*%
X117310000Y-140840000D03*
%TO.P,Q10,2*%
%TO.N,/Tank Level Sensors/VIN4-4*%
X116040000Y-140840000D03*
%TD*%
D20*
%TO.P,Q9,1*%
%TO.N,/Tank Level Sensors/TTL3-4*%
X114770000Y-146630000D03*
D21*
%TO.P,Q9,3*%
%TO.N,VBUS*%
X117310000Y-146630000D03*
%TO.P,Q9,2*%
%TO.N,/Tank Level Sensors/VIN3-4*%
X116040000Y-146630000D03*
%TD*%
D20*
%TO.P,Q8,1*%
%TO.N,/Tank Level Sensors/TTL1-2*%
X108260000Y-140840000D03*
D21*
%TO.P,Q8,3*%
%TO.N,VBUS*%
X110800000Y-140840000D03*
%TO.P,Q8,2*%
%TO.N,/Tank Level Sensors/VIN1-2*%
X109530000Y-140840000D03*
%TD*%
D20*
%TO.P,Q7,1*%
%TO.N,/Tank Level Sensors/TTL1-4*%
X108260000Y-146630000D03*
D21*
%TO.P,Q7,3*%
%TO.N,VBUS*%
X110800000Y-146630000D03*
%TO.P,Q7,2*%
%TO.N,/Tank Level Sensors/VIN1-4*%
X109530000Y-146630000D03*
%TD*%
D20*
%TO.P,Q5,1*%
%TO.N,GND*%
X91440000Y-146050000D03*
D21*
%TO.P,Q5,3*%
%TO.N,Net-(Q5-Pad3)*%
X93980000Y-146050000D03*
%TO.P,Q5,2*%
%TO.N,Net-(J4-Pad1)*%
X92710000Y-146050000D03*
%TD*%
D20*
%TO.P,Q3,1*%
%TO.N,GND*%
X99060000Y-146050000D03*
D21*
%TO.P,Q3,3*%
%TO.N,Net-(Q3-Pad3)*%
X101600000Y-146050000D03*
%TO.P,Q3,2*%
%TO.N,Net-(J4-Pad2)*%
X100330000Y-146050000D03*
%TD*%
D22*
%TO.P,Q1,1*%
%TO.N,GND*%
X93980000Y-128270000D03*
D23*
%TO.P,Q1,3*%
%TO.N,Net-(Q1-Pad3)*%
X93980000Y-130810000D03*
%TO.P,Q1,2*%
%TO.N,Net-(J4-Pad3)*%
X93980000Y-129540000D03*
%TD*%
D14*
%TO.P,J6,2*%
%TO.N,GND*%
X139700000Y-120650000D03*
D15*
%TO.P,J6,1*%
%TO.N,Net-(D3-Pad1)*%
X144780000Y-120650000D03*
%TD*%
D14*
%TO.P,J5,2*%
%TO.N,GND*%
X120650000Y-120650000D03*
D15*
%TO.P,J5,1*%
%TO.N,Net-(D2-Pad1)*%
X125730000Y-120650000D03*
%TD*%
D14*
%TO.P,J3,2*%
%TO.N,GND*%
X101600000Y-120650000D03*
D15*
%TO.P,J3,1*%
%TO.N,Net-(D1-Pad1)*%
X106680000Y-120650000D03*
%TD*%
D24*
%TO.P,D3,2*%
%TO.N,GND*%
X151130000Y-132080000D03*
D15*
%TO.P,D3,1*%
%TO.N,Net-(D3-Pad1)*%
X151130000Y-116840000D03*
%TD*%
D24*
%TO.P,D2,2*%
%TO.N,GND*%
X132080000Y-132080000D03*
D15*
%TO.P,D2,1*%
%TO.N,Net-(D2-Pad1)*%
X132080000Y-116840000D03*
%TD*%
D24*
%TO.P,D1,2*%
%TO.N,GND*%
X113030000Y-132080000D03*
D15*
%TO.P,D1,1*%
%TO.N,Net-(D1-Pad1)*%
X113030000Y-116840000D03*
%TD*%
D25*
%TO.N,GND*%
X129000000Y-137346600D03*
%TD*%
D26*
%TO.N,+VDC*%
X97790000Y-133350000D02*
X97790000Y-132080000D01*
X97790000Y-132080000D02*
X101600000Y-128270000D01*
X135890000Y-133350000D02*
X135890000Y-132080000D01*
X135890000Y-132080000D02*
X139700000Y-128270000D01*
X116840000Y-133350000D02*
X116840000Y-132080000D01*
X116840000Y-132080000D02*
X120650000Y-128270000D01*
D27*
%TO.N,/Tank Level Sensors/TTL1-4*%
X108260000Y-146630000D02*
X108260000Y-145554700D01*
X108260000Y-145554700D02*
X117625300Y-145554700D01*
X117625300Y-145554700D02*
X120870000Y-142310000D01*
%TD*%
D28*
%TO.N,+VDC*%
X104013000Y-125730000D02*
X104015440Y-125754776D01*
X104022667Y-125778601D01*
X104034403Y-125800557D01*
X104050197Y-125819803D01*
X104069443Y-125835597D01*
X104091399Y-125847333D01*
X104115224Y-125854560D01*
X104140000Y-125857000D01*
X140843000Y-125857000D01*
X140843000Y-127355336D01*
X140806885Y-127342720D01*
X139879605Y-128270000D01*
X140806885Y-129197280D01*
X140843000Y-129184664D01*
X140843000Y-129413000D01*
X140614664Y-129413000D01*
X140627280Y-129376885D01*
X139700000Y-128449605D01*
X138772720Y-129376885D01*
X138785336Y-129413000D01*
X127298061Y-129413000D01*
X127315812Y-129354482D01*
X127328072Y-129230000D01*
X127328072Y-128334178D01*
X138098568Y-128334178D01*
X138141860Y-128645368D01*
X138245030Y-128942134D01*
X138332803Y-129106347D01*
X138593115Y-129197280D01*
X139520395Y-128270000D01*
X138593115Y-127342720D01*
X138332803Y-127433653D01*
X138195910Y-127716451D01*
X138116818Y-128020521D01*
X138098568Y-128334178D01*
X127328072Y-128334178D01*
X127328072Y-127310000D01*
X127315812Y-127185518D01*
X127309017Y-127163115D01*
X138772720Y-127163115D01*
X139700000Y-128090395D01*
X140627280Y-127163115D01*
X140536347Y-126902803D01*
X140253549Y-126765910D01*
X139949479Y-126686818D01*
X139635822Y-126668568D01*
X139324632Y-126711860D01*
X139027866Y-126815030D01*
X138863653Y-126902803D01*
X138772720Y-127163115D01*
X127309017Y-127163115D01*
X127279502Y-127065820D01*
X127220537Y-126955506D01*
X127141185Y-126858815D01*
X127044494Y-126779463D01*
X126934180Y-126720498D01*
X126814482Y-126684188D01*
X126690000Y-126671928D01*
X124770000Y-126671928D01*
X124645518Y-126684188D01*
X124525820Y-126720498D01*
X124415506Y-126779463D01*
X124318815Y-126858815D01*
X124239463Y-126955506D01*
X124201089Y-127027297D01*
X123945516Y-126856529D01*
X123655244Y-126736294D01*
X123347094Y-126675000D01*
X123032906Y-126675000D01*
X122724756Y-126736294D01*
X122434484Y-126856529D01*
X122173246Y-127031082D01*
X121951082Y-127253246D01*
X121865861Y-127380788D01*
X121756885Y-127342720D01*
X120829605Y-128270000D01*
X121756885Y-129197280D01*
X121865861Y-129159212D01*
X121951082Y-129286754D01*
X122077328Y-129413000D01*
X121564664Y-129413000D01*
X121577280Y-129376885D01*
X120650000Y-128449605D01*
X119722720Y-129376885D01*
X119735336Y-129413000D01*
X108248061Y-129413000D01*
X108265812Y-129354482D01*
X108278072Y-129230000D01*
X108278072Y-128334178D01*
X119048568Y-128334178D01*
X119091860Y-128645368D01*
X119195030Y-128942134D01*
X119282803Y-129106347D01*
X119543115Y-129197280D01*
X120470395Y-128270000D01*
X119543115Y-127342720D01*
X119282803Y-127433653D01*
X119145910Y-127716451D01*
X119066818Y-128020521D01*
X119048568Y-128334178D01*
X108278072Y-128334178D01*
X108278072Y-127310000D01*
X108265812Y-127185518D01*
X108259017Y-127163115D01*
X119722720Y-127163115D01*
X120650000Y-128090395D01*
X121577280Y-127163115D01*
X121486347Y-126902803D01*
X121203549Y-126765910D01*
X120899479Y-126686818D01*
X120585822Y-126668568D01*
X120274632Y-126711860D01*
X119977866Y-126815030D01*
X119813653Y-126902803D01*
X119722720Y-127163115D01*
X108259017Y-127163115D01*
X108229502Y-127065820D01*
X108170537Y-126955506D01*
X108091185Y-126858815D01*
X107994494Y-126779463D01*
X107884180Y-126720498D01*
X107764482Y-126684188D01*
X107640000Y-126671928D01*
X105720000Y-126671928D01*
X105595518Y-126684188D01*
X105475820Y-126720498D01*
X105365506Y-126779463D01*
X105268815Y-126858815D01*
X105189463Y-126955506D01*
X105151089Y-127027297D01*
X104895516Y-126856529D01*
X104605244Y-126736294D01*
X104297094Y-126675000D01*
X103982906Y-126675000D01*
X103674756Y-126736294D01*
X103384484Y-126856529D01*
X103123246Y-127031082D01*
X102901082Y-127253246D01*
X102815861Y-127380788D01*
X102706885Y-127342720D01*
X101779605Y-128270000D01*
X102706885Y-129197280D01*
X102815861Y-129159212D01*
X102901082Y-129286754D01*
X103027328Y-129413000D01*
X102514664Y-129413000D01*
X102527280Y-129376885D01*
X101600000Y-128449605D01*
X100672720Y-129376885D01*
X100685336Y-129413000D01*
X97917000Y-129413000D01*
X97917000Y-128334178D01*
X99998568Y-128334178D01*
X100041860Y-128645368D01*
X100145030Y-128942134D01*
X100232803Y-129106347D01*
X100493115Y-129197280D01*
X101420395Y-128270000D01*
X100493115Y-127342720D01*
X100232803Y-127433653D01*
X100095910Y-127716451D01*
X100016818Y-128020521D01*
X99998568Y-128334178D01*
X97917000Y-128334178D01*
X97917000Y-127163115D01*
X100672720Y-127163115D01*
X101600000Y-128090395D01*
X102527280Y-127163115D01*
X102436347Y-126902803D01*
X102153549Y-126765910D01*
X101849479Y-126686818D01*
X101535822Y-126668568D01*
X101224632Y-126711860D01*
X100927866Y-126815030D01*
X100763653Y-126902803D01*
X100672720Y-127163115D01*
X97917000Y-127163115D01*
X97917000Y-120650000D01*
X97914560Y-120625224D01*
X97907333Y-120601399D01*
X97895597Y-120579443D01*
X97879803Y-120560197D01*
X97860557Y-120544403D01*
X97838601Y-120532667D01*
X97814776Y-120525440D01*
X97790000Y-120523000D01*
X86487000Y-120523000D01*
X86487000Y-120459419D01*
X99665000Y-120459419D01*
X99665000Y-120840581D01*
X99739361Y-121214419D01*
X99885225Y-121566566D01*
X100096987Y-121883491D01*
X100366509Y-122153013D01*
X100683434Y-122364775D01*
X101035581Y-122510639D01*
X101409419Y-122585000D01*
X101790581Y-122585000D01*
X102164419Y-122510639D01*
X102516566Y-122364775D01*
X102833491Y-122153013D01*
X103103013Y-121883491D01*
X103314775Y-121566566D01*
X103460639Y-121214419D01*
X103535000Y-120840581D01*
X103535000Y-120459419D01*
X103460639Y-120085581D01*
X103314775Y-119733434D01*
X103103013Y-119416509D01*
X102833491Y-119146987D01*
X102516566Y-118935225D01*
X102164419Y-118789361D01*
X101790581Y-118715000D01*
X101409419Y-118715000D01*
X101035581Y-118789361D01*
X100683434Y-118935225D01*
X100366509Y-119146987D01*
X100096987Y-119416509D01*
X99885225Y-119733434D01*
X99739361Y-120085581D01*
X99665000Y-120459419D01*
X86487000Y-120459419D01*
X86487000Y-119410000D01*
X88231928Y-119410000D01*
X88244188Y-119534482D01*
X88280498Y-119654180D01*
X88339463Y-119764494D01*
X88418815Y-119861185D01*
X88515506Y-119940537D01*
X88625820Y-119999502D01*
X88745518Y-120035812D01*
X88870000Y-120048072D01*
X89884250Y-120045000D01*
X90043000Y-119886250D01*
X90043000Y-118237000D01*
X90297000Y-118237000D01*
X90297000Y-119886250D01*
X90455750Y-120045000D01*
X91470000Y-120048072D01*
X91594482Y-120035812D01*
X91714180Y-119999502D01*
X91824494Y-119940537D01*
X91921185Y-119861185D01*
X92000537Y-119764494D01*
X92059502Y-119654180D01*
X92095812Y-119534482D01*
X92108072Y-119410000D01*
X92105000Y-118395750D01*
X91946250Y-118237000D01*
X90297000Y-118237000D01*
X90043000Y-118237000D01*
X88393750Y-118237000D01*
X88235000Y-118395750D01*
X88231928Y-119410000D01*
X86487000Y-119410000D01*
X86487000Y-116810000D01*
X88231928Y-116810000D01*
X88235000Y-117824250D01*
X88393750Y-117983000D01*
X90043000Y-117983000D01*
X90043000Y-116333750D01*
X90297000Y-116333750D01*
X90297000Y-117983000D01*
X91946250Y-117983000D01*
X92105000Y-117824250D01*
X92108072Y-116810000D01*
X92095812Y-116685518D01*
X92059502Y-116565820D01*
X92000537Y-116455506D01*
X91921185Y-116358815D01*
X91824494Y-116279463D01*
X91714180Y-116220498D01*
X91594482Y-116184188D01*
X91470000Y-116171928D01*
X90455750Y-116175000D01*
X90297000Y-116333750D01*
X90043000Y-116333750D01*
X89884250Y-116175000D01*
X88870000Y-116171928D01*
X88745518Y-116184188D01*
X88625820Y-116220498D01*
X88515506Y-116279463D01*
X88418815Y-116358815D01*
X88339463Y-116455506D01*
X88280498Y-116565820D01*
X88244188Y-116685518D01*
X88231928Y-116810000D01*
X86487000Y-116810000D01*
X86487000Y-115697000D01*
X104013000Y-115697000D01*
X104013000Y-125730000D01*
%TA.AperFunction,Conductor*%
D29*
G36*
X104013000Y-125730000D02*
G01*
X104015440Y-125754776D01*
X104022667Y-125778601D01*
X104034403Y-125800557D01*
X104050197Y-125819803D01*
X104069443Y-125835597D01*
X104091399Y-125847333D01*
X104115224Y-125854560D01*
X104140000Y-125857000D01*
X140843000Y-125857000D01*
X140843000Y-127355336D01*
X140806885Y-127342720D01*
X139879605Y-128270000D01*
X140806885Y-129197280D01*
X140843000Y-129184664D01*
X140843000Y-129413000D01*
X140614664Y-129413000D01*
X140627280Y-129376885D01*
X139700000Y-128449605D01*
X138772720Y-129376885D01*
X138785336Y-129413000D01*
X127298061Y-129413000D01*
X127315812Y-129354482D01*
X127328072Y-129230000D01*
X127328072Y-128334178D01*
X138098568Y-128334178D01*
X138141860Y-128645368D01*
X138245030Y-128942134D01*
X138332803Y-129106347D01*
X138593115Y-129197280D01*
X139520395Y-128270000D01*
X138593115Y-127342720D01*
X138332803Y-127433653D01*
X138195910Y-127716451D01*
X138116818Y-128020521D01*
X138098568Y-128334178D01*
X127328072Y-128334178D01*
X127328072Y-127310000D01*
X127315812Y-127185518D01*
X127309017Y-127163115D01*
X138772720Y-127163115D01*
X139700000Y-128090395D01*
X140627280Y-127163115D01*
X140536347Y-126902803D01*
X140253549Y-126765910D01*
X139949479Y-126686818D01*
X139635822Y-126668568D01*
X139324632Y-126711860D01*
X139027866Y-126815030D01*
X138863653Y-126902803D01*
X138772720Y-127163115D01*
X127309017Y-127163115D01*
X127279502Y-127065820D01*
X127220537Y-126955506D01*
X127141185Y-126858815D01*
X127044494Y-126779463D01*
X126934180Y-126720498D01*
X126814482Y-126684188D01*
X126690000Y-126671928D01*
X124770000Y-126671928D01*
X124645518Y-126684188D01*
X124525820Y-126720498D01*
X124415506Y-126779463D01*
X124318815Y-126858815D01*
X124239463Y-126955506D01*
X124201089Y-127027297D01*
X123945516Y-126856529D01*
X123655244Y-126736294D01*
X123347094Y-126675000D01*
X123032906Y-126675000D01*
X122724756Y-126736294D01*
X122434484Y-126856529D01*
X122173246Y-127031082D01*
X121951082Y-127253246D01*
X121865861Y-127380788D01*
X121756885Y-127342720D01*
X120829605Y-128270000D01*
X121756885Y-129197280D01*
X121865861Y-129159212D01*
X121951082Y-129286754D01*
X122077328Y-129413000D01*
X121564664Y-129413000D01*
X121577280Y-129376885D01*
X120650000Y-128449605D01*
X119722720Y-129376885D01*
X119735336Y-129413000D01*
X108248061Y-129413000D01*
X108265812Y-129354482D01*
X108278072Y-129230000D01*
X108278072Y-128334178D01*
X119048568Y-128334178D01*
X119091860Y-128645368D01*
X119195030Y-128942134D01*
X119282803Y-129106347D01*
X119543115Y-129197280D01*
X120470395Y-128270000D01*
X119543115Y-127342720D01*
X119282803Y-127433653D01*
X119145910Y-127716451D01*
X119066818Y-128020521D01*
X119048568Y-128334178D01*
X108278072Y-128334178D01*
X108278072Y-127310000D01*
X108265812Y-127185518D01*
X108259017Y-127163115D01*
X119722720Y-127163115D01*
X120650000Y-128090395D01*
X121577280Y-127163115D01*
X121486347Y-126902803D01*
X121203549Y-126765910D01*
X120899479Y-126686818D01*
X120585822Y-126668568D01*
X120274632Y-126711860D01*
X119977866Y-126815030D01*
X119813653Y-126902803D01*
X119722720Y-127163115D01*
X108259017Y-127163115D01*
X108229502Y-127065820D01*
X108170537Y-126955506D01*
X108091185Y-126858815D01*
X107994494Y-126779463D01*
X107884180Y-126720498D01*
X107764482Y-126684188D01*
X107640000Y-126671928D01*
X105720000Y-126671928D01*
X105595518Y-126684188D01*
X105475820Y-126720498D01*
X105365506Y-126779463D01*
X105268815Y-126858815D01*
X105189463Y-126955506D01*
X105151089Y-127027297D01*
X104895516Y-126856529D01*
X104605244Y-126736294D01*
X104297094Y-126675000D01*
X103982906Y-126675000D01*
X103674756Y-126736294D01*
X103384484Y-126856529D01*
X103123246Y-127031082D01*
X102901082Y-127253246D01*
X102815861Y-127380788D01*
X102706885Y-127342720D01*
X101779605Y-128270000D01*
X102706885Y-129197280D01*
X102815861Y-129159212D01*
X102901082Y-129286754D01*
X103027328Y-129413000D01*
X102514664Y-129413000D01*
X102527280Y-129376885D01*
X101600000Y-128449605D01*
X100672720Y-129376885D01*
X100685336Y-129413000D01*
X97917000Y-129413000D01*
X97917000Y-128334178D01*
X99998568Y-128334178D01*
X100041860Y-128645368D01*
X100145030Y-128942134D01*
X100232803Y-129106347D01*
X100493115Y-129197280D01*
X101420395Y-128270000D01*
X100493115Y-127342720D01*
X100232803Y-127433653D01*
X100095910Y-127716451D01*
X100016818Y-128020521D01*
X99998568Y-128334178D01*
X97917000Y-128334178D01*
X97917000Y-127163115D01*
X100672720Y-127163115D01*
X101600000Y-128090395D01*
X102527280Y-127163115D01*
X102436347Y-126902803D01*
X102153549Y-126765910D01*
X101849479Y-126686818D01*
X101535822Y-126668568D01*
X101224632Y-126711860D01*
X100927866Y-126815030D01*
X100763653Y-126902803D01*
X100672720Y-127163115D01*
X97917000Y-127163115D01*
X97917000Y-120650000D01*
X97914560Y-120625224D01*
X97907333Y-120601399D01*
X97895597Y-120579443D01*
X97879803Y-120560197D01*
X97860557Y-120544403D01*
X97838601Y-120532667D01*
X97814776Y-120525440D01*
X97790000Y-120523000D01*
X86487000Y-120523000D01*
X86487000Y-120459419D01*
X99665000Y-120459419D01*
X99665000Y-120840581D01*
X99739361Y-121214419D01*
X99885225Y-121566566D01*
X100096987Y-121883491D01*
X100366509Y-122153013D01*
X100683434Y-122364775D01*
X101035581Y-122510639D01*
X101409419Y-122585000D01*
X101790581Y-122585000D01*
X102164419Y-122510639D01*
X102516566Y-122364775D01*
X102833491Y-122153013D01*
X103103013Y-121883491D01*
X103314775Y-121566566D01*
X103460639Y-121214419D01*
X103535000Y-120840581D01*
X103535000Y-120459419D01*
X103460639Y-120085581D01*
X103314775Y-119733434D01*
X103103013Y-119416509D01*
X102833491Y-119146987D01*
X102516566Y-118935225D01*
X102164419Y-118789361D01*
X101790581Y-118715000D01*
X101409419Y-118715000D01*
X101035581Y-118789361D01*
X100683434Y-118935225D01*
X100366509Y-119146987D01*
X100096987Y-119416509D01*
X99885225Y-119733434D01*
X99739361Y-120085581D01*
X99665000Y-120459419D01*
X86487000Y-120459419D01*
X86487000Y-119410000D01*
X88231928Y-119410000D01*
X88244188Y-119534482D01*
X88280498Y-119654180D01*
X88339463Y-119764494D01*
X88418815Y-119861185D01*
X88515506Y-119940537D01*
X88625820Y-119999502D01*
X88745518Y-120035812D01*
X88870000Y-120048072D01*
X89884250Y-120045000D01*
X90043000Y-119886250D01*
X90043000Y-118237000D01*
X90297000Y-118237000D01*
X90297000Y-119886250D01*
X90455750Y-120045000D01*
X91470000Y-120048072D01*
X91594482Y-120035812D01*
X91714180Y-119999502D01*
X91824494Y-119940537D01*
X91921185Y-119861185D01*
X92000537Y-119764494D01*
X92059502Y-119654180D01*
X92095812Y-119534482D01*
X92108072Y-119410000D01*
X92105000Y-118395750D01*
X91946250Y-118237000D01*
X90297000Y-118237000D01*
X90043000Y-118237000D01*
X88393750Y-118237000D01*
X88235000Y-118395750D01*
X88231928Y-119410000D01*
X86487000Y-119410000D01*
X86487000Y-116810000D01*
X88231928Y-116810000D01*
X88235000Y-117824250D01*
X88393750Y-117983000D01*
X90043000Y-117983000D01*
X90043000Y-116333750D01*
X90297000Y-116333750D01*
X90297000Y-117983000D01*
X91946250Y-117983000D01*
X92105000Y-117824250D01*
X92108072Y-116810000D01*
X92095812Y-116685518D01*
X92059502Y-116565820D01*
X92000537Y-116455506D01*
X91921185Y-116358815D01*
X91824494Y-116279463D01*
X91714180Y-116220498D01*
X91594482Y-116184188D01*
X91470000Y-116171928D01*
X90455750Y-116175000D01*
X90297000Y-116333750D01*
X90043000Y-116333750D01*
X89884250Y-116175000D01*
X88870000Y-116171928D01*
X88745518Y-116184188D01*
X88625820Y-116220498D01*
X88515506Y-116279463D01*
X88418815Y-116358815D01*
X88339463Y-116455506D01*
X88280498Y-116565820D01*
X88244188Y-116685518D01*
X88231928Y-116810000D01*
X86487000Y-116810000D01*
X86487000Y-115697000D01*
X104013000Y-115697000D01*
X104013000Y-125730000D01*
G37*
%TD.AperFunction*%
%TD*%
M02*
