%TF.GenerationSoftware,KiCad,Pcbnew,(5.1.9)-1*%
%TF.CreationDate,2021-10-09T19:01:39-07:00*%
%TF.ProjectId,HVAC Moisture Recovery system,48564143-204d-46f6-9973-747572652052,rev?*%
%TF.SameCoordinates,Original*%
%TF.FileFunction,Soldermask,Top*%
%TF.FilePolarity,Negative*%
%FSLAX46Y46*%
G04 Gerber Fmt 4.6, Leading zero omitted, Abs format (unit mm)*
G04 Created by KiCad (PCBNEW (5.1.9)-1) date 2021-10-09 19:01:39*
%MOMM*%
%LPD*%
G01*
G04 APERTURE LIST*
%ADD10C,1.150000*%
%ADD11R,1.150000X1.150000*%
%ADD12C,1.920000*%
%ADD13R,1.920000X1.920000*%
%ADD14C,2.600000*%
%ADD15R,2.600000X2.600000*%
%ADD16O,1.700000X1.700000*%
%ADD17R,1.700000X1.700000*%
%ADD18O,1.400000X1.400000*%
%ADD19C,1.400000*%
%ADD20R,1.050000X1.500000*%
%ADD21O,1.050000X1.500000*%
%ADD22R,1.500000X1.050000*%
%ADD23O,1.500000X1.050000*%
%ADD24O,2.600000X2.600000*%
G04 APERTURE END LIST*
D10*
%TO.C,Z3*%
X146590000Y-133350000D03*
D11*
X135890000Y-133350000D03*
%TD*%
D10*
%TO.C,Z2*%
X127540000Y-133350000D03*
D11*
X116840000Y-133350000D03*
%TD*%
D10*
%TO.C,Z1*%
X108490000Y-133350000D03*
D11*
X97790000Y-133350000D03*
%TD*%
D12*
%TO.C,Q6*%
X139700000Y-128270000D03*
X142240000Y-128270000D03*
D13*
X144780000Y-128270000D03*
%TD*%
D12*
%TO.C,Q4*%
X120650000Y-128270000D03*
X123190000Y-128270000D03*
D13*
X125730000Y-128270000D03*
%TD*%
D12*
%TO.C,Q2*%
X101600000Y-128270000D03*
X104140000Y-128270000D03*
D13*
X106680000Y-128270000D03*
%TD*%
D14*
%TO.C,J2*%
X90170000Y-123190000D03*
D15*
X90170000Y-118110000D03*
%TD*%
D16*
%TO.C,J4*%
X157480000Y-142240000D03*
X157480000Y-139700000D03*
X157480000Y-137160000D03*
X157480000Y-134620000D03*
X157480000Y-132080000D03*
X157480000Y-129540000D03*
X157480000Y-127000000D03*
X157480000Y-124460000D03*
D17*
X157480000Y-121920000D03*
%TD*%
D14*
%TO.C,J1*%
X151130000Y-144780000D03*
X146050000Y-144780000D03*
X140970000Y-144780000D03*
D15*
X135890000Y-144780000D03*
%TD*%
D18*
%TO.C,R17*%
X129000000Y-148610000D03*
D19*
X126460000Y-148610000D03*
%TD*%
D18*
%TO.C,R16*%
X129000000Y-145460000D03*
D19*
X126460000Y-145460000D03*
%TD*%
D18*
%TO.C,R15*%
X123410000Y-148610000D03*
D19*
X120870000Y-148610000D03*
%TD*%
D18*
%TO.C,R14*%
X129000000Y-142310000D03*
D19*
X126460000Y-142310000D03*
%TD*%
D18*
%TO.C,R13*%
X123410000Y-145460000D03*
D19*
X120870000Y-145460000D03*
%TD*%
D18*
%TO.C,R12*%
X129000000Y-139160000D03*
D19*
X126460000Y-139160000D03*
%TD*%
D18*
%TO.C,R11*%
X123410000Y-142310000D03*
D19*
X120870000Y-142310000D03*
%TD*%
D18*
%TO.C,R10*%
X123410000Y-139160000D03*
D19*
X120870000Y-139160000D03*
%TD*%
D18*
%TO.C,R9*%
X88900000Y-148590000D03*
D19*
X86360000Y-148590000D03*
%TD*%
D18*
%TO.C,R8*%
X88900000Y-144780000D03*
D19*
X86360000Y-144780000D03*
%TD*%
D18*
%TO.C,R7*%
X88900000Y-140970000D03*
D19*
X86360000Y-140970000D03*
%TD*%
D18*
%TO.C,R6*%
X101600000Y-139700000D03*
D19*
X99060000Y-139700000D03*
%TD*%
D18*
%TO.C,R5*%
X93980000Y-139700000D03*
D19*
X91440000Y-139700000D03*
%TD*%
D18*
%TO.C,R4*%
X93980000Y-135890000D03*
D19*
X91440000Y-135890000D03*
%TD*%
D18*
%TO.C,R3*%
X88900000Y-137160000D03*
D19*
X86360000Y-137160000D03*
%TD*%
D18*
%TO.C,R2*%
X88900000Y-133350000D03*
D19*
X86360000Y-133350000D03*
%TD*%
D18*
%TO.C,R1*%
X88900000Y-129540000D03*
D19*
X86360000Y-129540000D03*
%TD*%
D20*
%TO.C,Q10*%
X114770000Y-140840000D03*
D21*
X117310000Y-140840000D03*
X116040000Y-140840000D03*
%TD*%
D20*
%TO.C,Q9*%
X114770000Y-146630000D03*
D21*
X117310000Y-146630000D03*
X116040000Y-146630000D03*
%TD*%
D20*
%TO.C,Q8*%
X108260000Y-140840000D03*
D21*
X110800000Y-140840000D03*
X109530000Y-140840000D03*
%TD*%
D20*
%TO.C,Q7*%
X108260000Y-146630000D03*
D21*
X110800000Y-146630000D03*
X109530000Y-146630000D03*
%TD*%
D20*
%TO.C,Q5*%
X91440000Y-146050000D03*
D21*
X93980000Y-146050000D03*
X92710000Y-146050000D03*
%TD*%
D20*
%TO.C,Q3*%
X99060000Y-146050000D03*
D21*
X101600000Y-146050000D03*
X100330000Y-146050000D03*
%TD*%
D22*
%TO.C,Q1*%
X93980000Y-128270000D03*
D23*
X93980000Y-130810000D03*
X93980000Y-129540000D03*
%TD*%
D14*
%TO.C,J6*%
X139700000Y-120650000D03*
D15*
X144780000Y-120650000D03*
%TD*%
D14*
%TO.C,J5*%
X120650000Y-120650000D03*
D15*
X125730000Y-120650000D03*
%TD*%
D14*
%TO.C,J3*%
X101600000Y-120650000D03*
D15*
X106680000Y-120650000D03*
%TD*%
D24*
%TO.C,D3*%
X151130000Y-132080000D03*
D15*
X151130000Y-116840000D03*
%TD*%
D24*
%TO.C,D2*%
X132080000Y-132080000D03*
D15*
X132080000Y-116840000D03*
%TD*%
D24*
%TO.C,D1*%
X113030000Y-132080000D03*
D15*
X113030000Y-116840000D03*
%TD*%
M02*
