%TF.GenerationSoftware,KiCad,Pcbnew,(5.1.9)-1*%
%TF.CreationDate,2021-10-09T19:01:39-07:00*%
%TF.ProjectId,HVAC Moisture Recovery system,48564143-204d-46f6-9973-747572652052,rev?*%
%TF.SameCoordinates,Original*%
%TF.FileFunction,Copper,L4,Bot*%
%TF.FilePolarity,Positive*%
%FSLAX46Y46*%
G04 Gerber Fmt 4.6, Leading zero omitted, Abs format (unit mm)*
G04 Created by KiCad (PCBNEW (5.1.9)-1) date 2021-10-09 19:01:39*
%MOMM*%
%LPD*%
G01*
G04 APERTURE LIST*
%TA.AperFunction,ComponentPad*%
%ADD10C,1.150000*%
%TD*%
%TA.AperFunction,ComponentPad*%
%ADD11R,1.150000X1.150000*%
%TD*%
%TA.AperFunction,ComponentPad*%
%ADD12C,1.920000*%
%TD*%
%TA.AperFunction,ComponentPad*%
%ADD13R,1.920000X1.920000*%
%TD*%
%TA.AperFunction,ComponentPad*%
%ADD14C,2.600000*%
%TD*%
%TA.AperFunction,ComponentPad*%
%ADD15R,2.600000X2.600000*%
%TD*%
%TA.AperFunction,ComponentPad*%
%ADD16O,1.700000X1.700000*%
%TD*%
%TA.AperFunction,ComponentPad*%
%ADD17R,1.700000X1.700000*%
%TD*%
%TA.AperFunction,ComponentPad*%
%ADD18O,1.400000X1.400000*%
%TD*%
%TA.AperFunction,ComponentPad*%
%ADD19C,1.400000*%
%TD*%
%TA.AperFunction,ComponentPad*%
%ADD20R,1.050000X1.500000*%
%TD*%
%TA.AperFunction,ComponentPad*%
%ADD21O,1.050000X1.500000*%
%TD*%
%TA.AperFunction,ComponentPad*%
%ADD22R,1.500000X1.050000*%
%TD*%
%TA.AperFunction,ComponentPad*%
%ADD23O,1.500000X1.050000*%
%TD*%
%TA.AperFunction,ComponentPad*%
%ADD24O,2.600000X2.600000*%
%TD*%
%TA.AperFunction,ViaPad*%
%ADD25C,0.800000*%
%TD*%
%TA.AperFunction,Conductor*%
%ADD26C,0.250000*%
%TD*%
%TA.AperFunction,Conductor*%
%ADD27C,1.270000*%
%TD*%
%TA.AperFunction,Conductor*%
%ADD28C,0.254000*%
%TD*%
%TA.AperFunction,Conductor*%
%ADD29C,0.100000*%
%TD*%
G04 APERTURE END LIST*
D10*
%TO.P,Z3,2*%
%TO.N,Net-(Q6-Pad1)*%
X146590000Y-133350000D03*
D11*
%TO.P,Z3,1*%
%TO.N,+VDC*%
X135890000Y-133350000D03*
%TD*%
D10*
%TO.P,Z2,2*%
%TO.N,Net-(Q4-Pad1)*%
X127540000Y-133350000D03*
D11*
%TO.P,Z2,1*%
%TO.N,+VDC*%
X116840000Y-133350000D03*
%TD*%
D10*
%TO.P,Z1,2*%
%TO.N,Net-(Q2-Pad1)*%
X108490000Y-133350000D03*
D11*
%TO.P,Z1,1*%
%TO.N,+VDC*%
X97790000Y-133350000D03*
%TD*%
D12*
%TO.P,Q6,3*%
%TO.N,+VDC*%
X139700000Y-128270000D03*
%TO.P,Q6,2*%
%TO.N,Net-(D3-Pad1)*%
X142240000Y-128270000D03*
D13*
%TO.P,Q6,1*%
%TO.N,Net-(Q6-Pad1)*%
X144780000Y-128270000D03*
%TD*%
D12*
%TO.P,Q4,3*%
%TO.N,+VDC*%
X120650000Y-128270000D03*
%TO.P,Q4,2*%
%TO.N,Net-(D2-Pad1)*%
X123190000Y-128270000D03*
D13*
%TO.P,Q4,1*%
%TO.N,Net-(Q4-Pad1)*%
X125730000Y-128270000D03*
%TD*%
D12*
%TO.P,Q2,3*%
%TO.N,+VDC*%
X101600000Y-128270000D03*
%TO.P,Q2,2*%
%TO.N,Net-(D1-Pad1)*%
X104140000Y-128270000D03*
D13*
%TO.P,Q2,1*%
%TO.N,Net-(Q2-Pad1)*%
X106680000Y-128270000D03*
%TD*%
D14*
%TO.P,J2,2*%
%TO.N,GND*%
X90170000Y-123190000D03*
D15*
%TO.P,J2,1*%
%TO.N,+VDC*%
X90170000Y-118110000D03*
%TD*%
D16*
%TO.P,J4,9*%
%TO.N,GND*%
X157480000Y-142240000D03*
%TO.P,J4,8*%
%TO.N,VBUS*%
X157480000Y-139700000D03*
%TO.P,J4,7*%
%TO.N,/Tank Level Sensors/TTL4-4*%
X157480000Y-137160000D03*
%TO.P,J4,6*%
%TO.N,/Tank Level Sensors/TTL3-4*%
X157480000Y-134620000D03*
%TO.P,J4,5*%
%TO.N,/Tank Level Sensors/TTL1-2*%
X157480000Y-132080000D03*
%TO.P,J4,4*%
%TO.N,/Tank Level Sensors/TTL1-4*%
X157480000Y-129540000D03*
%TO.P,J4,3*%
%TO.N,Net-(J4-Pad3)*%
X157480000Y-127000000D03*
%TO.P,J4,2*%
%TO.N,Net-(J4-Pad2)*%
X157480000Y-124460000D03*
D17*
%TO.P,J4,1*%
%TO.N,Net-(J4-Pad1)*%
X157480000Y-121920000D03*
%TD*%
D14*
%TO.P,J1,4*%
%TO.N,/Tank Level Sensors/VIN4-4*%
X151130000Y-144780000D03*
%TO.P,J1,3*%
%TO.N,/Tank Level Sensors/VIN3-4*%
X146050000Y-144780000D03*
%TO.P,J1,2*%
%TO.N,/Tank Level Sensors/VIN1-2*%
X140970000Y-144780000D03*
D15*
%TO.P,J1,1*%
%TO.N,/Tank Level Sensors/VIN1-4*%
X135890000Y-144780000D03*
%TD*%
D18*
%TO.P,R17,2*%
%TO.N,GND*%
X129000000Y-148610000D03*
D19*
%TO.P,R17,1*%
%TO.N,/Tank Level Sensors/TTL4-4*%
X126460000Y-148610000D03*
%TD*%
D18*
%TO.P,R16,2*%
%TO.N,GND*%
X129000000Y-145460000D03*
D19*
%TO.P,R16,1*%
%TO.N,/Tank Level Sensors/VIN4-4*%
X126460000Y-145460000D03*
%TD*%
D18*
%TO.P,R15,2*%
%TO.N,GND*%
X123410000Y-148610000D03*
D19*
%TO.P,R15,1*%
%TO.N,/Tank Level Sensors/TTL3-4*%
X120870000Y-148610000D03*
%TD*%
D18*
%TO.P,R14,2*%
%TO.N,GND*%
X129000000Y-142310000D03*
D19*
%TO.P,R14,1*%
%TO.N,/Tank Level Sensors/VIN3-4*%
X126460000Y-142310000D03*
%TD*%
D18*
%TO.P,R13,2*%
%TO.N,GND*%
X123410000Y-145460000D03*
D19*
%TO.P,R13,1*%
%TO.N,/Tank Level Sensors/TTL1-2*%
X120870000Y-145460000D03*
%TD*%
D18*
%TO.P,R12,2*%
%TO.N,GND*%
X129000000Y-139160000D03*
D19*
%TO.P,R12,1*%
%TO.N,/Tank Level Sensors/VIN1-2*%
X126460000Y-139160000D03*
%TD*%
D18*
%TO.P,R11,2*%
%TO.N,GND*%
X123410000Y-142310000D03*
D19*
%TO.P,R11,1*%
%TO.N,/Tank Level Sensors/TTL1-4*%
X120870000Y-142310000D03*
%TD*%
D18*
%TO.P,R10,2*%
%TO.N,GND*%
X123410000Y-139160000D03*
D19*
%TO.P,R10,1*%
%TO.N,/Tank Level Sensors/VIN1-4*%
X120870000Y-139160000D03*
%TD*%
D18*
%TO.P,R9,2*%
%TO.N,Net-(Q5-Pad3)*%
X88900000Y-148590000D03*
D19*
%TO.P,R9,1*%
%TO.N,Net-(Q6-Pad1)*%
X86360000Y-148590000D03*
%TD*%
D18*
%TO.P,R8,2*%
%TO.N,Net-(Q6-Pad1)*%
X88900000Y-144780000D03*
D19*
%TO.P,R8,1*%
%TO.N,+VDC*%
X86360000Y-144780000D03*
%TD*%
D18*
%TO.P,R7,2*%
%TO.N,GND*%
X88900000Y-140970000D03*
D19*
%TO.P,R7,1*%
%TO.N,Net-(J4-Pad1)*%
X86360000Y-140970000D03*
%TD*%
D18*
%TO.P,R6,2*%
%TO.N,Net-(Q3-Pad3)*%
X101600000Y-139700000D03*
D19*
%TO.P,R6,1*%
%TO.N,Net-(Q4-Pad1)*%
X99060000Y-139700000D03*
%TD*%
D18*
%TO.P,R5,2*%
%TO.N,Net-(Q4-Pad1)*%
X93980000Y-139700000D03*
D19*
%TO.P,R5,1*%
%TO.N,+VDC*%
X91440000Y-139700000D03*
%TD*%
D18*
%TO.P,R4,2*%
%TO.N,GND*%
X93980000Y-135890000D03*
D19*
%TO.P,R4,1*%
%TO.N,Net-(J4-Pad2)*%
X91440000Y-135890000D03*
%TD*%
D18*
%TO.P,R3,2*%
%TO.N,Net-(Q1-Pad3)*%
X88900000Y-137160000D03*
D19*
%TO.P,R3,1*%
%TO.N,Net-(Q2-Pad1)*%
X86360000Y-137160000D03*
%TD*%
D18*
%TO.P,R2,2*%
%TO.N,Net-(Q2-Pad1)*%
X88900000Y-133350000D03*
D19*
%TO.P,R2,1*%
%TO.N,+VDC*%
X86360000Y-133350000D03*
%TD*%
D18*
%TO.P,R1,2*%
%TO.N,GND*%
X88900000Y-129540000D03*
D19*
%TO.P,R1,1*%
%TO.N,Net-(J4-Pad3)*%
X86360000Y-129540000D03*
%TD*%
D20*
%TO.P,Q10,1*%
%TO.N,/Tank Level Sensors/TTL4-4*%
X114770000Y-140840000D03*
D21*
%TO.P,Q10,3*%
%TO.N,VBUS*%
X117310000Y-140840000D03*
%TO.P,Q10,2*%
%TO.N,/Tank Level Sensors/VIN4-4*%
X116040000Y-140840000D03*
%TD*%
D20*
%TO.P,Q9,1*%
%TO.N,/Tank Level Sensors/TTL3-4*%
X114770000Y-146630000D03*
D21*
%TO.P,Q9,3*%
%TO.N,VBUS*%
X117310000Y-146630000D03*
%TO.P,Q9,2*%
%TO.N,/Tank Level Sensors/VIN3-4*%
X116040000Y-146630000D03*
%TD*%
D20*
%TO.P,Q8,1*%
%TO.N,/Tank Level Sensors/TTL1-2*%
X108260000Y-140840000D03*
D21*
%TO.P,Q8,3*%
%TO.N,VBUS*%
X110800000Y-140840000D03*
%TO.P,Q8,2*%
%TO.N,/Tank Level Sensors/VIN1-2*%
X109530000Y-140840000D03*
%TD*%
D20*
%TO.P,Q7,1*%
%TO.N,/Tank Level Sensors/TTL1-4*%
X108260000Y-146630000D03*
D21*
%TO.P,Q7,3*%
%TO.N,VBUS*%
X110800000Y-146630000D03*
%TO.P,Q7,2*%
%TO.N,/Tank Level Sensors/VIN1-4*%
X109530000Y-146630000D03*
%TD*%
D20*
%TO.P,Q5,1*%
%TO.N,GND*%
X91440000Y-146050000D03*
D21*
%TO.P,Q5,3*%
%TO.N,Net-(Q5-Pad3)*%
X93980000Y-146050000D03*
%TO.P,Q5,2*%
%TO.N,Net-(J4-Pad1)*%
X92710000Y-146050000D03*
%TD*%
D20*
%TO.P,Q3,1*%
%TO.N,GND*%
X99060000Y-146050000D03*
D21*
%TO.P,Q3,3*%
%TO.N,Net-(Q3-Pad3)*%
X101600000Y-146050000D03*
%TO.P,Q3,2*%
%TO.N,Net-(J4-Pad2)*%
X100330000Y-146050000D03*
%TD*%
D22*
%TO.P,Q1,1*%
%TO.N,GND*%
X93980000Y-128270000D03*
D23*
%TO.P,Q1,3*%
%TO.N,Net-(Q1-Pad3)*%
X93980000Y-130810000D03*
%TO.P,Q1,2*%
%TO.N,Net-(J4-Pad3)*%
X93980000Y-129540000D03*
%TD*%
D14*
%TO.P,J6,2*%
%TO.N,GND*%
X139700000Y-120650000D03*
D15*
%TO.P,J6,1*%
%TO.N,Net-(D3-Pad1)*%
X144780000Y-120650000D03*
%TD*%
D14*
%TO.P,J5,2*%
%TO.N,GND*%
X120650000Y-120650000D03*
D15*
%TO.P,J5,1*%
%TO.N,Net-(D2-Pad1)*%
X125730000Y-120650000D03*
%TD*%
D14*
%TO.P,J3,2*%
%TO.N,GND*%
X101600000Y-120650000D03*
D15*
%TO.P,J3,1*%
%TO.N,Net-(D1-Pad1)*%
X106680000Y-120650000D03*
%TD*%
D24*
%TO.P,D3,2*%
%TO.N,GND*%
X151130000Y-132080000D03*
D15*
%TO.P,D3,1*%
%TO.N,Net-(D3-Pad1)*%
X151130000Y-116840000D03*
%TD*%
D24*
%TO.P,D2,2*%
%TO.N,GND*%
X132080000Y-132080000D03*
D15*
%TO.P,D2,1*%
%TO.N,Net-(D2-Pad1)*%
X132080000Y-116840000D03*
%TD*%
D24*
%TO.P,D1,2*%
%TO.N,GND*%
X113030000Y-132080000D03*
D15*
%TO.P,D1,1*%
%TO.N,Net-(D1-Pad1)*%
X113030000Y-116840000D03*
%TD*%
D25*
%TO.N,GND*%
X129000000Y-137346600D03*
%TD*%
D26*
%TO.N,GND*%
X123410000Y-148610000D02*
X123410000Y-145460000D01*
X129000000Y-137346600D02*
X129000000Y-139160000D01*
X129000000Y-145460000D02*
X129000000Y-148610000D01*
X129000000Y-142310000D02*
X129000000Y-145460000D01*
X123410000Y-145460000D02*
X123410000Y-142310000D01*
X123410000Y-142310000D02*
X123410000Y-139160000D01*
X93980000Y-125412500D02*
X93980000Y-128270000D01*
D27*
X113030000Y-132080000D02*
X113030000Y-128270000D01*
X113030000Y-128270000D02*
X120650000Y-120650000D01*
X132080000Y-132080000D02*
X132080000Y-128270000D01*
X132080000Y-128270000D02*
X139700000Y-120650000D01*
X151130000Y-132080000D02*
X151130000Y-130242000D01*
X151130000Y-130242000D02*
X143673000Y-122785000D01*
X143673000Y-122785000D02*
X141835000Y-122785000D01*
X141835000Y-122785000D02*
X139700000Y-120650000D01*
D26*
%TO.N,Net-(Q2-Pad1)*%
X88900000Y-133350000D02*
X88900000Y-134375300D01*
X88900000Y-134375300D02*
X86360000Y-136915300D01*
X86360000Y-136915300D02*
X86360000Y-137160000D01*
D27*
X106680000Y-128270000D02*
X106680000Y-131540000D01*
X106680000Y-131540000D02*
X108490000Y-133350000D01*
%TO.N,Net-(Q4-Pad1)*%
X127540000Y-133350000D02*
X127540000Y-130080000D01*
X127540000Y-130080000D02*
X125730000Y-128270000D01*
%TO.N,Net-(Q6-Pad1)*%
X146590000Y-133350000D02*
X146590000Y-130080000D01*
X146590000Y-130080000D02*
X144780000Y-128270000D01*
D26*
%TO.N,VBUS*%
X110800000Y-146630000D02*
X110800000Y-140840000D01*
%TD*%
D28*
%TO.N,GND*%
X111104188Y-118264482D02*
X111140498Y-118384180D01*
X111199463Y-118494494D01*
X111278815Y-118591185D01*
X111375506Y-118670537D01*
X111485820Y-118729502D01*
X111605518Y-118765812D01*
X111730000Y-118778072D01*
X114330000Y-118778072D01*
X114454482Y-118765812D01*
X114574180Y-118729502D01*
X114684494Y-118670537D01*
X114781185Y-118591185D01*
X114860537Y-118494494D01*
X114919502Y-118384180D01*
X114955812Y-118264482D01*
X114958519Y-118237000D01*
X130151481Y-118237000D01*
X130154188Y-118264482D01*
X130190498Y-118384180D01*
X130249463Y-118494494D01*
X130328815Y-118591185D01*
X130425506Y-118670537D01*
X130535820Y-118729502D01*
X130655518Y-118765812D01*
X130780000Y-118778072D01*
X133380000Y-118778072D01*
X133504482Y-118765812D01*
X133624180Y-118729502D01*
X133734494Y-118670537D01*
X133831185Y-118591185D01*
X133910537Y-118494494D01*
X133969502Y-118384180D01*
X134005812Y-118264482D01*
X134008519Y-118237000D01*
X142113000Y-118237000D01*
X142113000Y-125603000D01*
X86487000Y-125603000D01*
X86487000Y-124539224D01*
X89000381Y-124539224D01*
X89132317Y-124834312D01*
X89473045Y-125005159D01*
X89840557Y-125106250D01*
X90220729Y-125133701D01*
X90598951Y-125086457D01*
X90960690Y-124966333D01*
X91207683Y-124834312D01*
X91339619Y-124539224D01*
X90170000Y-123369605D01*
X89000381Y-124539224D01*
X86487000Y-124539224D01*
X86487000Y-123240729D01*
X88226299Y-123240729D01*
X88273543Y-123618951D01*
X88393667Y-123980690D01*
X88525688Y-124227683D01*
X88820776Y-124359619D01*
X89990395Y-123190000D01*
X90349605Y-123190000D01*
X91519224Y-124359619D01*
X91814312Y-124227683D01*
X91985159Y-123886955D01*
X92086250Y-123519443D01*
X92113701Y-123139271D01*
X92066457Y-122761049D01*
X91946333Y-122399310D01*
X91814312Y-122152317D01*
X91519224Y-122020381D01*
X90349605Y-123190000D01*
X89990395Y-123190000D01*
X88820776Y-122020381D01*
X88525688Y-122152317D01*
X88354841Y-122493045D01*
X88253750Y-122860557D01*
X88226299Y-123240729D01*
X86487000Y-123240729D01*
X86487000Y-121840776D01*
X89000381Y-121840776D01*
X90170000Y-123010395D01*
X91181171Y-121999224D01*
X100430381Y-121999224D01*
X100562317Y-122294312D01*
X100903045Y-122465159D01*
X101270557Y-122566250D01*
X101650729Y-122593701D01*
X102028951Y-122546457D01*
X102390690Y-122426333D01*
X102637683Y-122294312D01*
X102769619Y-121999224D01*
X101600000Y-120829605D01*
X100430381Y-121999224D01*
X91181171Y-121999224D01*
X91339619Y-121840776D01*
X91207683Y-121545688D01*
X90866955Y-121374841D01*
X90499443Y-121273750D01*
X90119271Y-121246299D01*
X89741049Y-121293543D01*
X89379310Y-121413667D01*
X89132317Y-121545688D01*
X89000381Y-121840776D01*
X86487000Y-121840776D01*
X86487000Y-120777000D01*
X95250000Y-120777000D01*
X95274776Y-120774560D01*
X95298601Y-120767333D01*
X95320557Y-120755597D01*
X95339803Y-120739803D01*
X95355597Y-120720557D01*
X95366195Y-120700729D01*
X99656299Y-120700729D01*
X99703543Y-121078951D01*
X99823667Y-121440690D01*
X99955688Y-121687683D01*
X100250776Y-121819619D01*
X101420395Y-120650000D01*
X101779605Y-120650000D01*
X102949224Y-121819619D01*
X103244312Y-121687683D01*
X103415159Y-121346955D01*
X103516250Y-120979443D01*
X103543701Y-120599271D01*
X103496457Y-120221049D01*
X103376333Y-119859310D01*
X103244312Y-119612317D01*
X102949224Y-119480381D01*
X101779605Y-120650000D01*
X101420395Y-120650000D01*
X100250776Y-119480381D01*
X99955688Y-119612317D01*
X99784841Y-119953045D01*
X99683750Y-120320557D01*
X99656299Y-120700729D01*
X95366195Y-120700729D01*
X95367333Y-120698601D01*
X95374560Y-120674776D01*
X95377000Y-120650000D01*
X95377000Y-119300776D01*
X100430381Y-119300776D01*
X101600000Y-120470395D01*
X102720395Y-119350000D01*
X104741928Y-119350000D01*
X104741928Y-121950000D01*
X104754188Y-122074482D01*
X104790498Y-122194180D01*
X104849463Y-122304494D01*
X104928815Y-122401185D01*
X105025506Y-122480537D01*
X105135820Y-122539502D01*
X105255518Y-122575812D01*
X105380000Y-122588072D01*
X107980000Y-122588072D01*
X108104482Y-122575812D01*
X108224180Y-122539502D01*
X108334494Y-122480537D01*
X108431185Y-122401185D01*
X108510537Y-122304494D01*
X108569502Y-122194180D01*
X108605812Y-122074482D01*
X108613224Y-121999224D01*
X119480381Y-121999224D01*
X119612317Y-122294312D01*
X119953045Y-122465159D01*
X120320557Y-122566250D01*
X120700729Y-122593701D01*
X121078951Y-122546457D01*
X121440690Y-122426333D01*
X121687683Y-122294312D01*
X121819619Y-121999224D01*
X120650000Y-120829605D01*
X119480381Y-121999224D01*
X108613224Y-121999224D01*
X108618072Y-121950000D01*
X108618072Y-120700729D01*
X118706299Y-120700729D01*
X118753543Y-121078951D01*
X118873667Y-121440690D01*
X119005688Y-121687683D01*
X119300776Y-121819619D01*
X120470395Y-120650000D01*
X120829605Y-120650000D01*
X121999224Y-121819619D01*
X122294312Y-121687683D01*
X122465159Y-121346955D01*
X122566250Y-120979443D01*
X122593701Y-120599271D01*
X122546457Y-120221049D01*
X122426333Y-119859310D01*
X122294312Y-119612317D01*
X121999224Y-119480381D01*
X120829605Y-120650000D01*
X120470395Y-120650000D01*
X119300776Y-119480381D01*
X119005688Y-119612317D01*
X118834841Y-119953045D01*
X118733750Y-120320557D01*
X118706299Y-120700729D01*
X108618072Y-120700729D01*
X108618072Y-119350000D01*
X108613225Y-119300776D01*
X119480381Y-119300776D01*
X120650000Y-120470395D01*
X121770395Y-119350000D01*
X123791928Y-119350000D01*
X123791928Y-121950000D01*
X123804188Y-122074482D01*
X123840498Y-122194180D01*
X123899463Y-122304494D01*
X123978815Y-122401185D01*
X124075506Y-122480537D01*
X124185820Y-122539502D01*
X124305518Y-122575812D01*
X124430000Y-122588072D01*
X127030000Y-122588072D01*
X127154482Y-122575812D01*
X127274180Y-122539502D01*
X127384494Y-122480537D01*
X127481185Y-122401185D01*
X127560537Y-122304494D01*
X127619502Y-122194180D01*
X127655812Y-122074482D01*
X127663224Y-121999224D01*
X138530381Y-121999224D01*
X138662317Y-122294312D01*
X139003045Y-122465159D01*
X139370557Y-122566250D01*
X139750729Y-122593701D01*
X140128951Y-122546457D01*
X140490690Y-122426333D01*
X140737683Y-122294312D01*
X140869619Y-121999224D01*
X139700000Y-120829605D01*
X138530381Y-121999224D01*
X127663224Y-121999224D01*
X127668072Y-121950000D01*
X127668072Y-120700729D01*
X137756299Y-120700729D01*
X137803543Y-121078951D01*
X137923667Y-121440690D01*
X138055688Y-121687683D01*
X138350776Y-121819619D01*
X139520395Y-120650000D01*
X139879605Y-120650000D01*
X141049224Y-121819619D01*
X141344312Y-121687683D01*
X141515159Y-121346955D01*
X141616250Y-120979443D01*
X141643701Y-120599271D01*
X141596457Y-120221049D01*
X141476333Y-119859310D01*
X141344312Y-119612317D01*
X141049224Y-119480381D01*
X139879605Y-120650000D01*
X139520395Y-120650000D01*
X138350776Y-119480381D01*
X138055688Y-119612317D01*
X137884841Y-119953045D01*
X137783750Y-120320557D01*
X137756299Y-120700729D01*
X127668072Y-120700729D01*
X127668072Y-119350000D01*
X127663225Y-119300776D01*
X138530381Y-119300776D01*
X139700000Y-120470395D01*
X140869619Y-119300776D01*
X140737683Y-119005688D01*
X140396955Y-118834841D01*
X140029443Y-118733750D01*
X139649271Y-118706299D01*
X139271049Y-118753543D01*
X138909310Y-118873667D01*
X138662317Y-119005688D01*
X138530381Y-119300776D01*
X127663225Y-119300776D01*
X127655812Y-119225518D01*
X127619502Y-119105820D01*
X127560537Y-118995506D01*
X127481185Y-118898815D01*
X127384494Y-118819463D01*
X127274180Y-118760498D01*
X127154482Y-118724188D01*
X127030000Y-118711928D01*
X124430000Y-118711928D01*
X124305518Y-118724188D01*
X124185820Y-118760498D01*
X124075506Y-118819463D01*
X123978815Y-118898815D01*
X123899463Y-118995506D01*
X123840498Y-119105820D01*
X123804188Y-119225518D01*
X123791928Y-119350000D01*
X121770395Y-119350000D01*
X121819619Y-119300776D01*
X121687683Y-119005688D01*
X121346955Y-118834841D01*
X120979443Y-118733750D01*
X120599271Y-118706299D01*
X120221049Y-118753543D01*
X119859310Y-118873667D01*
X119612317Y-119005688D01*
X119480381Y-119300776D01*
X108613225Y-119300776D01*
X108605812Y-119225518D01*
X108569502Y-119105820D01*
X108510537Y-118995506D01*
X108431185Y-118898815D01*
X108334494Y-118819463D01*
X108224180Y-118760498D01*
X108104482Y-118724188D01*
X107980000Y-118711928D01*
X105380000Y-118711928D01*
X105255518Y-118724188D01*
X105135820Y-118760498D01*
X105025506Y-118819463D01*
X104928815Y-118898815D01*
X104849463Y-118995506D01*
X104790498Y-119105820D01*
X104754188Y-119225518D01*
X104741928Y-119350000D01*
X102720395Y-119350000D01*
X102769619Y-119300776D01*
X102637683Y-119005688D01*
X102296955Y-118834841D01*
X101929443Y-118733750D01*
X101549271Y-118706299D01*
X101171049Y-118753543D01*
X100809310Y-118873667D01*
X100562317Y-119005688D01*
X100430381Y-119300776D01*
X95377000Y-119300776D01*
X95377000Y-118237000D01*
X111101481Y-118237000D01*
X111104188Y-118264482D01*
%TA.AperFunction,Conductor*%
D29*
G36*
X111104188Y-118264482D02*
G01*
X111140498Y-118384180D01*
X111199463Y-118494494D01*
X111278815Y-118591185D01*
X111375506Y-118670537D01*
X111485820Y-118729502D01*
X111605518Y-118765812D01*
X111730000Y-118778072D01*
X114330000Y-118778072D01*
X114454482Y-118765812D01*
X114574180Y-118729502D01*
X114684494Y-118670537D01*
X114781185Y-118591185D01*
X114860537Y-118494494D01*
X114919502Y-118384180D01*
X114955812Y-118264482D01*
X114958519Y-118237000D01*
X130151481Y-118237000D01*
X130154188Y-118264482D01*
X130190498Y-118384180D01*
X130249463Y-118494494D01*
X130328815Y-118591185D01*
X130425506Y-118670537D01*
X130535820Y-118729502D01*
X130655518Y-118765812D01*
X130780000Y-118778072D01*
X133380000Y-118778072D01*
X133504482Y-118765812D01*
X133624180Y-118729502D01*
X133734494Y-118670537D01*
X133831185Y-118591185D01*
X133910537Y-118494494D01*
X133969502Y-118384180D01*
X134005812Y-118264482D01*
X134008519Y-118237000D01*
X142113000Y-118237000D01*
X142113000Y-125603000D01*
X86487000Y-125603000D01*
X86487000Y-124539224D01*
X89000381Y-124539224D01*
X89132317Y-124834312D01*
X89473045Y-125005159D01*
X89840557Y-125106250D01*
X90220729Y-125133701D01*
X90598951Y-125086457D01*
X90960690Y-124966333D01*
X91207683Y-124834312D01*
X91339619Y-124539224D01*
X90170000Y-123369605D01*
X89000381Y-124539224D01*
X86487000Y-124539224D01*
X86487000Y-123240729D01*
X88226299Y-123240729D01*
X88273543Y-123618951D01*
X88393667Y-123980690D01*
X88525688Y-124227683D01*
X88820776Y-124359619D01*
X89990395Y-123190000D01*
X90349605Y-123190000D01*
X91519224Y-124359619D01*
X91814312Y-124227683D01*
X91985159Y-123886955D01*
X92086250Y-123519443D01*
X92113701Y-123139271D01*
X92066457Y-122761049D01*
X91946333Y-122399310D01*
X91814312Y-122152317D01*
X91519224Y-122020381D01*
X90349605Y-123190000D01*
X89990395Y-123190000D01*
X88820776Y-122020381D01*
X88525688Y-122152317D01*
X88354841Y-122493045D01*
X88253750Y-122860557D01*
X88226299Y-123240729D01*
X86487000Y-123240729D01*
X86487000Y-121840776D01*
X89000381Y-121840776D01*
X90170000Y-123010395D01*
X91181171Y-121999224D01*
X100430381Y-121999224D01*
X100562317Y-122294312D01*
X100903045Y-122465159D01*
X101270557Y-122566250D01*
X101650729Y-122593701D01*
X102028951Y-122546457D01*
X102390690Y-122426333D01*
X102637683Y-122294312D01*
X102769619Y-121999224D01*
X101600000Y-120829605D01*
X100430381Y-121999224D01*
X91181171Y-121999224D01*
X91339619Y-121840776D01*
X91207683Y-121545688D01*
X90866955Y-121374841D01*
X90499443Y-121273750D01*
X90119271Y-121246299D01*
X89741049Y-121293543D01*
X89379310Y-121413667D01*
X89132317Y-121545688D01*
X89000381Y-121840776D01*
X86487000Y-121840776D01*
X86487000Y-120777000D01*
X95250000Y-120777000D01*
X95274776Y-120774560D01*
X95298601Y-120767333D01*
X95320557Y-120755597D01*
X95339803Y-120739803D01*
X95355597Y-120720557D01*
X95366195Y-120700729D01*
X99656299Y-120700729D01*
X99703543Y-121078951D01*
X99823667Y-121440690D01*
X99955688Y-121687683D01*
X100250776Y-121819619D01*
X101420395Y-120650000D01*
X101779605Y-120650000D01*
X102949224Y-121819619D01*
X103244312Y-121687683D01*
X103415159Y-121346955D01*
X103516250Y-120979443D01*
X103543701Y-120599271D01*
X103496457Y-120221049D01*
X103376333Y-119859310D01*
X103244312Y-119612317D01*
X102949224Y-119480381D01*
X101779605Y-120650000D01*
X101420395Y-120650000D01*
X100250776Y-119480381D01*
X99955688Y-119612317D01*
X99784841Y-119953045D01*
X99683750Y-120320557D01*
X99656299Y-120700729D01*
X95366195Y-120700729D01*
X95367333Y-120698601D01*
X95374560Y-120674776D01*
X95377000Y-120650000D01*
X95377000Y-119300776D01*
X100430381Y-119300776D01*
X101600000Y-120470395D01*
X102720395Y-119350000D01*
X104741928Y-119350000D01*
X104741928Y-121950000D01*
X104754188Y-122074482D01*
X104790498Y-122194180D01*
X104849463Y-122304494D01*
X104928815Y-122401185D01*
X105025506Y-122480537D01*
X105135820Y-122539502D01*
X105255518Y-122575812D01*
X105380000Y-122588072D01*
X107980000Y-122588072D01*
X108104482Y-122575812D01*
X108224180Y-122539502D01*
X108334494Y-122480537D01*
X108431185Y-122401185D01*
X108510537Y-122304494D01*
X108569502Y-122194180D01*
X108605812Y-122074482D01*
X108613224Y-121999224D01*
X119480381Y-121999224D01*
X119612317Y-122294312D01*
X119953045Y-122465159D01*
X120320557Y-122566250D01*
X120700729Y-122593701D01*
X121078951Y-122546457D01*
X121440690Y-122426333D01*
X121687683Y-122294312D01*
X121819619Y-121999224D01*
X120650000Y-120829605D01*
X119480381Y-121999224D01*
X108613224Y-121999224D01*
X108618072Y-121950000D01*
X108618072Y-120700729D01*
X118706299Y-120700729D01*
X118753543Y-121078951D01*
X118873667Y-121440690D01*
X119005688Y-121687683D01*
X119300776Y-121819619D01*
X120470395Y-120650000D01*
X120829605Y-120650000D01*
X121999224Y-121819619D01*
X122294312Y-121687683D01*
X122465159Y-121346955D01*
X122566250Y-120979443D01*
X122593701Y-120599271D01*
X122546457Y-120221049D01*
X122426333Y-119859310D01*
X122294312Y-119612317D01*
X121999224Y-119480381D01*
X120829605Y-120650000D01*
X120470395Y-120650000D01*
X119300776Y-119480381D01*
X119005688Y-119612317D01*
X118834841Y-119953045D01*
X118733750Y-120320557D01*
X118706299Y-120700729D01*
X108618072Y-120700729D01*
X108618072Y-119350000D01*
X108613225Y-119300776D01*
X119480381Y-119300776D01*
X120650000Y-120470395D01*
X121770395Y-119350000D01*
X123791928Y-119350000D01*
X123791928Y-121950000D01*
X123804188Y-122074482D01*
X123840498Y-122194180D01*
X123899463Y-122304494D01*
X123978815Y-122401185D01*
X124075506Y-122480537D01*
X124185820Y-122539502D01*
X124305518Y-122575812D01*
X124430000Y-122588072D01*
X127030000Y-122588072D01*
X127154482Y-122575812D01*
X127274180Y-122539502D01*
X127384494Y-122480537D01*
X127481185Y-122401185D01*
X127560537Y-122304494D01*
X127619502Y-122194180D01*
X127655812Y-122074482D01*
X127663224Y-121999224D01*
X138530381Y-121999224D01*
X138662317Y-122294312D01*
X139003045Y-122465159D01*
X139370557Y-122566250D01*
X139750729Y-122593701D01*
X140128951Y-122546457D01*
X140490690Y-122426333D01*
X140737683Y-122294312D01*
X140869619Y-121999224D01*
X139700000Y-120829605D01*
X138530381Y-121999224D01*
X127663224Y-121999224D01*
X127668072Y-121950000D01*
X127668072Y-120700729D01*
X137756299Y-120700729D01*
X137803543Y-121078951D01*
X137923667Y-121440690D01*
X138055688Y-121687683D01*
X138350776Y-121819619D01*
X139520395Y-120650000D01*
X139879605Y-120650000D01*
X141049224Y-121819619D01*
X141344312Y-121687683D01*
X141515159Y-121346955D01*
X141616250Y-120979443D01*
X141643701Y-120599271D01*
X141596457Y-120221049D01*
X141476333Y-119859310D01*
X141344312Y-119612317D01*
X141049224Y-119480381D01*
X139879605Y-120650000D01*
X139520395Y-120650000D01*
X138350776Y-119480381D01*
X138055688Y-119612317D01*
X137884841Y-119953045D01*
X137783750Y-120320557D01*
X137756299Y-120700729D01*
X127668072Y-120700729D01*
X127668072Y-119350000D01*
X127663225Y-119300776D01*
X138530381Y-119300776D01*
X139700000Y-120470395D01*
X140869619Y-119300776D01*
X140737683Y-119005688D01*
X140396955Y-118834841D01*
X140029443Y-118733750D01*
X139649271Y-118706299D01*
X139271049Y-118753543D01*
X138909310Y-118873667D01*
X138662317Y-119005688D01*
X138530381Y-119300776D01*
X127663225Y-119300776D01*
X127655812Y-119225518D01*
X127619502Y-119105820D01*
X127560537Y-118995506D01*
X127481185Y-118898815D01*
X127384494Y-118819463D01*
X127274180Y-118760498D01*
X127154482Y-118724188D01*
X127030000Y-118711928D01*
X124430000Y-118711928D01*
X124305518Y-118724188D01*
X124185820Y-118760498D01*
X124075506Y-118819463D01*
X123978815Y-118898815D01*
X123899463Y-118995506D01*
X123840498Y-119105820D01*
X123804188Y-119225518D01*
X123791928Y-119350000D01*
X121770395Y-119350000D01*
X121819619Y-119300776D01*
X121687683Y-119005688D01*
X121346955Y-118834841D01*
X120979443Y-118733750D01*
X120599271Y-118706299D01*
X120221049Y-118753543D01*
X119859310Y-118873667D01*
X119612317Y-119005688D01*
X119480381Y-119300776D01*
X108613225Y-119300776D01*
X108605812Y-119225518D01*
X108569502Y-119105820D01*
X108510537Y-118995506D01*
X108431185Y-118898815D01*
X108334494Y-118819463D01*
X108224180Y-118760498D01*
X108104482Y-118724188D01*
X107980000Y-118711928D01*
X105380000Y-118711928D01*
X105255518Y-118724188D01*
X105135820Y-118760498D01*
X105025506Y-118819463D01*
X104928815Y-118898815D01*
X104849463Y-118995506D01*
X104790498Y-119105820D01*
X104754188Y-119225518D01*
X104741928Y-119350000D01*
X102720395Y-119350000D01*
X102769619Y-119300776D01*
X102637683Y-119005688D01*
X102296955Y-118834841D01*
X101929443Y-118733750D01*
X101549271Y-118706299D01*
X101171049Y-118753543D01*
X100809310Y-118873667D01*
X100562317Y-119005688D01*
X100430381Y-119300776D01*
X95377000Y-119300776D01*
X95377000Y-118237000D01*
X111101481Y-118237000D01*
X111104188Y-118264482D01*
G37*
%TD.AperFunction*%
%TD*%
M02*
