M48
INCH,TZ
T1C0.0157
T2C0.0276
T3C0.0295
T4C0.0394
T5C0.0504
T6C0.0512
%
G90
G05
T1
X50787Y-54073
T2
X34000Y-51000
X34000Y-52500
X34000Y-54000
X34000Y-55500
X34000Y-57000
X34000Y-58500
X35000Y-51000
X35000Y-52500
X35000Y-54000
X35000Y-55500
X35000Y-57000
X35000Y-58500
X36000Y-53500
X36000Y-55000
X37000Y-53500
X37000Y-55000
X39000Y-55000
X40000Y-55000
X47587Y-54787
X47587Y-56028
X47587Y-57268
X47587Y-58508
X48587Y-54787
X48587Y-56028
X48587Y-57268
X48587Y-58508
X49787Y-54787
X49787Y-56028
X49787Y-57268
X49787Y-58508
X50787Y-54787
X50787Y-56028
X50787Y-57268
X50787Y-58508
T3
X36000Y-57500
X36500Y-57500
X37000Y-50500
X37000Y-51000
X37000Y-51500
X37000Y-57500
X38500Y-52500
X39000Y-57500
X39500Y-57500
X40000Y-57500
X42622Y-55449
X42622Y-57728
X42713Y-52500
X43122Y-55449
X43122Y-57728
X43622Y-55449
X43622Y-57728
X45185Y-55449
X45185Y-57728
X45685Y-55449
X45685Y-57728
X46000Y-52500
X46185Y-55449
X46185Y-57728
X50213Y-52500
X53500Y-52500
X57713Y-52500
T4
X62000Y-48000
X62000Y-49000
X62000Y-50000
X62000Y-51000
X62000Y-52000
X62000Y-53000
X62000Y-54000
X62000Y-55000
X62000Y-56000
T5
X40000Y-50500
X41000Y-50500
X42000Y-50500
X47500Y-50500
X48500Y-50500
X49500Y-50500
X55000Y-50500
X56000Y-50500
X57000Y-50500
T6
X35500Y-46500
X35500Y-48500
X40000Y-47500
X42000Y-47500
X44500Y-46000
X44500Y-52000
X47500Y-47500
X49500Y-47500
X52000Y-46000
X52000Y-52000
X53500Y-57000
X55000Y-47500
X55500Y-57000
X57000Y-47500
X57500Y-57000
X59500Y-46000
X59500Y-52000
X59500Y-57000
T0
M30
